<svg width="294" height="461" viewBox="0 0 294 461" fill="none" xmlns="http://www.w3.org/2000/svg">
<path d="M214.583 357.417C214.583 404.218 176.634 442.167 129.833 442.167C108.646 442.167 89.2475 434.351 74.4633 421.45C80.2075 422.674 86.14 423.333 92.1666 423.333C138.967 423.333 176.917 385.384 176.917 338.583C176.917 312.97 165.522 289.993 147.537 274.55C185.862 282.648 214.583 316.737 214.583 357.417V357.417Z" fill="#151A1C"/>
<path opacity="0.35" d="M92.1667 423.333C138.973 423.333 176.917 385.39 176.917 338.583C176.917 291.777 138.973 253.833 92.1667 253.833C45.3605 253.833 7.41666 291.777 7.41666 338.583C7.41666 385.39 45.3605 423.333 92.1667 423.333Z" fill="#9494F8"/>
<path d="M92.1667 300.917C71.3558 300.917 54.5 317.773 54.5 338.583C54.5 359.394 71.3558 376.25 92.1667 376.25C112.978 376.25 129.833 359.394 129.833 338.583C129.833 317.773 112.978 300.917 92.1667 300.917V300.917ZM92.1667 348C86.9875 348 82.75 343.762 82.75 338.583C82.75 333.404 86.9875 329.167 92.1667 329.167C97.3458 329.167 101.583 333.404 101.583 338.583C101.583 343.762 97.3458 348 92.1667 348Z" fill="#151A1C"/>
<path opacity="0.35" d="M239.167 78.3334C258.635 78.3334 274.417 62.5514 274.417 43.0833C274.417 23.6153 258.635 7.83334 239.167 7.83334C219.699 7.83334 203.917 23.6153 203.917 43.0833C203.917 62.5514 219.699 78.3334 239.167 78.3334Z" fill="#9494F8"/>
<path d="M239.167 27.4167C230.511 27.4167 223.5 34.4275 223.5 43.0833C223.5 51.7392 230.511 58.75 239.167 58.75C247.823 58.75 254.833 51.7392 254.833 43.0833C254.833 34.4275 247.823 27.4167 239.167 27.4167V27.4167ZM239.167 47C237.013 47 235.25 45.2375 235.25 43.0833C235.25 40.9292 237.013 39.1667 239.167 39.1667C241.321 39.1667 243.083 40.9292 243.083 43.0833C243.083 45.2375 241.321 47 239.167 47Z" fill="#4446FE"/>
</svg>
