<svg width="410" height="336" viewBox="0 0 410 336" fill="none" xmlns="http://www.w3.org/2000/svg">
<path d="M101.706 286.841C101.706 308.818 83.8857 326.639 61.9082 326.639C51.9587 326.639 42.8494 322.969 35.9068 316.911C38.6042 317.485 41.3901 317.795 44.2202 317.795C66.1976 317.795 84.0183 299.974 84.0183 277.997C84.0183 265.969 78.6677 255.179 70.2216 247.927C88.2192 251.73 101.706 267.738 101.706 286.841V286.841Z" fill="#151A1C"/>
<path opacity="0.35" d="M44.2202 317.795C66.2001 317.795 84.0183 299.977 84.0183 277.997C84.0183 256.017 66.2001 238.199 44.2202 238.199C22.2402 238.199 4.422 256.017 4.422 277.997C4.422 299.977 22.2402 317.795 44.2202 317.795Z" fill="#9494F8"/>
<path d="M44.2202 260.309C34.4475 260.309 26.5321 268.224 26.5321 277.997C26.5321 287.77 34.4475 295.685 44.2202 295.685C53.9928 295.685 61.9082 287.77 61.9082 277.997C61.9082 268.224 53.9928 260.309 44.2202 260.309V260.309ZM44.2202 282.419C41.7881 282.419 39.7982 280.429 39.7982 277.997C39.7982 275.565 41.7881 273.575 44.2202 273.575C46.6523 273.575 48.6422 275.565 48.6422 277.997C48.6422 280.429 46.6523 282.419 44.2202 282.419Z" fill="#151A1C"/>
<path opacity="0.35" d="M388.5 165C400.374 165 410 155.374 410 143.5C410 131.626 400.374 122 388.5 122C376.626 122 367 131.626 367 143.5C367 155.374 376.626 165 388.5 165Z" fill="#9494F8"/>
<path d="M388.5 133.944C383.221 133.944 378.944 138.221 378.944 143.5C378.944 148.779 383.221 153.056 388.5 153.056C393.779 153.056 398.056 148.779 398.056 143.5C398.056 138.221 393.779 133.944 388.5 133.944V133.944ZM388.5 145.889C387.186 145.889 386.111 144.814 386.111 143.5C386.111 142.186 387.186 141.111 388.5 141.111C389.814 141.111 390.889 142.186 390.889 143.5C390.889 144.814 389.814 145.889 388.5 145.889Z" fill="#4446FE"/>
<path opacity="0.35" d="M246.25 70.5C265.718 70.5 281.5 54.7181 281.5 35.25C281.5 15.782 265.718 0 246.25 0C226.782 0 211 15.782 211 35.25C211 54.7181 226.782 70.5 246.25 70.5Z" fill="#9494F8"/>
<path d="M246.25 19.5833C237.594 19.5833 230.583 26.5942 230.583 35.25C230.583 43.9058 237.594 50.9167 246.25 50.9167C254.906 50.9167 261.917 43.9058 261.917 35.25C261.917 26.5942 254.906 19.5833 246.25 19.5833V19.5833ZM246.25 39.1667C244.096 39.1667 242.333 37.4042 242.333 35.25C242.333 33.0958 244.096 31.3333 246.25 31.3333C248.404 31.3333 250.167 33.0958 250.167 35.25C250.167 37.4042 248.404 39.1667 246.25 39.1667Z" fill="#4446FE"/>
</svg>
