<svg width="306" height="248" viewBox="0 0 306 248" fill="none" xmlns="http://www.w3.org/2000/svg">
<path opacity="0.35" d="M287.254 170.508C297.335 170.508 305.508 162.335 305.508 152.254C305.508 142.172 297.335 134 287.254 134C277.172 134 269 142.172 269 152.254C269 162.335 277.172 170.508 287.254 170.508Z" fill="#9494F8"/>
<path d="M287.254 144.141C282.771 144.141 279.141 147.771 279.141 152.254C279.141 156.736 282.771 160.367 287.254 160.367C291.736 160.367 295.367 156.736 295.367 152.254C295.367 147.771 291.736 144.141 287.254 144.141V144.141ZM287.254 154.282C286.138 154.282 285.226 153.369 285.226 152.254C285.226 151.138 286.138 150.226 287.254 150.226C288.369 150.226 289.282 151.138 289.282 152.254C289.282 153.369 288.369 154.282 287.254 154.282Z" fill="#4446FE"/>
<path d="M86.35 48.8065C86.35 67.4656 71.22 82.5956 52.5609 82.5956C44.1136 82.5956 36.3797 79.4795 30.4854 74.3361C32.7755 74.8241 35.1407 75.0869 37.5435 75.0869C56.2026 75.0869 71.3327 59.9569 71.3327 41.2978C71.3327 31.086 66.7899 21.9254 59.6191 15.7682C74.8993 18.997 86.35 32.5877 86.35 48.8065V48.8065Z" fill="#151A1C"/>
<path opacity="0.35" d="M37.5435 75.087C56.2047 75.087 71.3326 59.9591 71.3326 41.2978C71.3326 22.6366 56.2047 7.50869 37.5435 7.50869C18.8822 7.50869 3.75433 22.6366 3.75433 41.2978C3.75433 59.9591 18.8822 75.087 37.5435 75.087Z" fill="#9494F8"/>
<path d="M37.5435 26.2804C29.2464 26.2804 22.5261 33.0007 22.5261 41.2978C22.5261 49.5949 29.2464 56.3152 37.5435 56.3152C45.8406 56.3152 52.5609 49.5949 52.5609 41.2978C52.5609 33.0007 45.8406 26.2804 37.5435 26.2804V26.2804ZM37.5435 45.0522C35.4786 45.0522 33.7892 43.3627 33.7892 41.2978C33.7892 39.2329 35.4786 37.5435 37.5435 37.5435C39.6084 37.5435 41.2979 39.2329 41.2979 41.2978C41.2979 43.3627 39.6084 45.0522 37.5435 45.0522Z" fill="#151A1C"/>
<path opacity="0.35" d="M39.9277 247.855C56.4563 247.855 69.8554 234.456 69.8554 217.928C69.8554 201.399 56.4563 188 39.9277 188C23.3991 188 10 201.399 10 217.928C10 234.456 23.3991 247.855 39.9277 247.855Z" fill="#9494F8"/>
<path d="M39.9277 204.627C32.5788 204.627 26.6265 210.579 26.6265 217.928C26.6265 225.277 32.5788 231.229 39.9277 231.229C47.2766 231.229 53.2289 225.277 53.2289 217.928C53.2289 210.579 47.2766 204.627 39.9277 204.627V204.627ZM39.9277 221.253C38.0988 221.253 36.6024 219.757 36.6024 217.928C36.6024 216.099 38.0988 214.602 39.9277 214.602C41.7566 214.602 43.253 216.099 43.253 217.928C43.253 219.757 41.7566 221.253 39.9277 221.253Z" fill="#4446FE"/>
</svg>
