<svg width="224" height="226" viewBox="0 0 224 226" fill="none" xmlns="http://www.w3.org/2000/svg">
<path d="M214.583 122.417C214.583 169.218 176.634 207.167 129.833 207.167C108.646 207.167 89.2475 199.351 74.4633 186.45C80.2075 187.674 86.14 188.333 92.1666 188.333C138.967 188.333 176.917 150.384 176.917 103.583C176.917 77.97 165.522 54.9933 147.537 39.55C185.862 47.6483 214.583 81.7367 214.583 122.417V122.417Z" fill="#151A1C"/>
<path opacity="0.35" d="M92.1667 188.333C138.973 188.333 176.917 150.39 176.917 103.583C176.917 56.7772 138.973 18.8333 92.1667 18.8333C45.3605 18.8333 7.41666 56.7772 7.41666 103.583C7.41666 150.39 45.3605 188.333 92.1667 188.333Z" fill="#9494F8"/>
<path d="M92.1667 65.9167C71.3558 65.9167 54.5 82.7725 54.5 103.583C54.5 124.394 71.3558 141.25 92.1667 141.25C112.978 141.25 129.833 124.394 129.833 103.583C129.833 82.7725 112.978 65.9167 92.1667 65.9167V65.9167ZM92.1667 113C86.9875 113 82.75 108.762 82.75 103.583C82.75 98.4042 86.9875 94.1667 92.1667 94.1667C97.3458 94.1667 101.583 98.4042 101.583 103.583C101.583 108.762 97.3458 113 92.1667 113Z" fill="#151A1C"/>
</svg>
