<svg width="26" height="26" viewBox="0 0 26 26" fill="none" xmlns="http://www.w3.org/2000/svg">
<path d="M24.9167 14.0833C24.9167 19.4675 20.5509 23.8333 15.1667 23.8333C12.7292 23.8333 10.4975 22.9342 8.79669 21.45C9.45753 21.5908 10.14 21.6667 10.8334 21.6667C16.2175 21.6667 20.5834 17.3008 20.5834 11.9167C20.5834 8.97 19.2725 6.32667 17.2034 4.55C21.6125 5.48167 24.9167 9.40334 24.9167 14.0833V14.0833Z" fill="#151A1C"/>
<path opacity="0.35" d="M10.8334 21.6667C16.2182 21.6667 20.5834 17.3014 20.5834 11.9167C20.5834 6.53188 16.2182 2.16666 10.8334 2.16666C5.4486 2.16666 1.08337 6.53188 1.08337 11.9167C1.08337 17.3014 5.4486 21.6667 10.8334 21.6667Z" fill="#9494F8"/>
<path d="M10.8333 7.58333C8.43917 7.58333 6.5 9.52249 6.5 11.9167C6.5 14.3108 8.43917 16.25 10.8333 16.25C13.2275 16.25 15.1667 14.3108 15.1667 11.9167C15.1667 9.5225 13.2275 7.58333 10.8333 7.58333V7.58333ZM10.8333 13C10.2375 13 9.75 12.5125 9.75 11.9167C9.75 11.3208 10.2375 10.8333 10.8333 10.8333C11.4292 10.8333 11.9167 11.3208 11.9167 11.9167C11.9167 12.5125 11.4292 13 10.8333 13Z" fill="#151A1C"/>
</svg>
