<svg width="32" height="32" viewBox="0 0 32 32" fill="none" xmlns="http://www.w3.org/2000/svg">
<path d="M30.6667 17.3333C30.6667 23.96 25.2933 29.3333 18.6667 29.3333C15.6667 29.3333 12.92 28.2267 10.8267 26.4C11.64 26.5733 12.48 26.6667 13.3333 26.6667C19.96 26.6667 25.3333 21.2933 25.3333 14.6667C25.3333 11.04 23.72 7.78667 21.1733 5.60001C26.6 6.74667 30.6667 11.5733 30.6667 17.3333V17.3333Z" fill="#4446FE"/>
<path opacity="0.35" d="M13.3333 26.6667C19.9608 26.6667 25.3333 21.2941 25.3333 14.6667C25.3333 8.03926 19.9608 2.66667 13.3333 2.66667C6.70591 2.66667 1.33333 8.03926 1.33333 14.6667C1.33333 21.2941 6.70591 26.6667 13.3333 26.6667Z" fill="#9494F8"/>
<path d="M13.3333 9.33334C10.3867 9.33334 8 11.72 8 14.6667C8 17.6133 10.3867 20 13.3333 20C16.28 20 18.6667 17.6133 18.6667 14.6667C18.6667 11.72 16.28 9.33334 13.3333 9.33334V9.33334ZM13.3333 16C12.6 16 12 15.4 12 14.6667C12 13.9333 12.6 13.3333 13.3333 13.3333C14.0667 13.3333 14.6667 13.9333 14.6667 14.6667C14.6667 15.4 14.0667 16 13.3333 16Z" fill="#4446FE"/>
</svg>
